<svg xmlns="http://www.w3.org/2000/svg" viewBox="500 0 520 520">
  <rect x="500" y="0" width="520" height="520" rx="120" fill="#fff"/>
  <path fill="#06437f" d="M719.8 42.8c22.4-12.9 50-12.9 72.4 0l127.2 73.4c22.4 12.9 36.2 36.8 36.2 62.6v146.8c0 25.8-13.8 49.7-36.2 62.6l-127.2 73.4c-22.4 12.9-50 12.9-72.4 0l-127.2-73.4c-22.4-12.9-36.2-36.8-36.2-62.6V178.8c0-25.8 13.8-49.7 36.2-62.6z"/>
  <g fill="#fff">
    <path d="M665.8 226.2c0-59 40.1-108.8 94.5-123.3l18.1 109.3c.5 3.2 3.3 5.6 6.5 5.6 3.9 0 6.9-3.5 6.3-7.4l-18.4-113.1c9-1.9 18.4-2.9 27.9-2.9s18.9 1 27.9 2.9l-18.4 113.1c-.6 3.9 2.4 7.4 6.3 7.4 3.2 0 6-2.4 6.5-5.6l18.1-109.3c54.4 14.5 94.5 64.3 94.5 123.3v8.7l30.4 13.4c4.8 2.1 7.9 6.9 7.9 12.2v28.6c0 7.4-6 13.3-13.3 13.3H641.2c-7.4 0-13.3-6-13.3-13.3v-28.6c0-5.3 3.1-10.1 7.9-12.2l30-13.3z"/>
    <path d="M673.4 316.1h46.3a88.2 88.2 0 0 0-12.1 45.1c0 10.3 1.8 20.2 5.1 29.4l-21.6-3.2c-15.2-2.3-27.1-14.3-29.3-29.6l-6.1-41.7zM894.8 316.1h46.3l-6.1 41.7c-2.2 15.2-14.1 27.3-29.3 29.6l-21.6 3.2a87.5 87.5 0 0 0 5.1-29.4c0-16.4-4.5-31.8-12.2-45.1z"/>
    <path d="M800.8 404.8c-36.5 0-66.2-29.7-66.2-66.2s29.7-66.2 66.2-66.2 66.2 29.7 66.2 66.2-29.7 66.2-66.2 66.2zm-13.4-105.2c-3.8 0-6.9 3.1-6.9 6.9v18.7h-18.7c-3.8 0-6.9 3.1-6.9 6.9v13c0 3.8 3.1 6.9 6.9 6.9h18.7v18.7c0 3.8 3.1 6.9 6.9 6.9h26.8c3.8 0 6.9-3.1 6.9-6.9V352h18.7c3.8 0 6.9-3.1 6.9-6.9v-13c0-3.8-3.1-6.9-6.9-6.9h-18.7v-18.7c0-3.8-3.1-6.9-6.9-6.9z"/>
  </g>
</svg>
